Coordinates
version=1
nRows=11
nColumns=40
inDegrees=yes

Units are S.I. units (second, meters, Newtons, ...)
Angles are in degrees.

endheader
time	pelvis_tilt	pelvis_list	pelvis_rotation	pelvis_tx	pelvis_ty	pelvis_tz	hip_flexion_r	hip_adduction_r	hip_rotation_r	knee_angle_r	knee_angle_r_beta	ankle_angle_r	subtalar_angle_r	mtp_angle_r	hip_flexion_l	hip_adduction_l	hip_rotation_l	knee_angle_l	knee_angle_l_beta	ankle_angle_l	subtalar_angle_l	mtp_angle_l	lumbar_extension	lumbar_bending	lumbar_rotation	arm_flex_r	arm_add_r	arm_rot_r	elbow_flex_r	pro_sup_r	wrist_flex_r	wrist_dev_r	arm_flex_l	arm_add_l	arm_rot_l	elbow_flex_l	pro_sup_l	wrist_flex_l	wrist_dev_l
      0.71000000	     -0.23781443	     10.19852780	    -81.93562898	      0.59372590	      0.98149556	     -0.16812809	     11.34972183	     -6.09975185	    -12.73721939	     11.07395289	      0.19327694	      4.79486267	      0.00000000	      0.00000000	     15.65377095	     -4.21425657	     -2.35109857	     13.03817380	      0.22755906	      3.75727266	      0.00000000	      0.00000000	      7.03961927	     -4.33044090	     -6.27881760	    -54.79590191	    -65.54036522	    -22.53666235	    106.44775581	     46.39149978	      0.00000000	      0.00000000	    -10.64650653	    -85.25363059	     16.48611622	    107.02479810	     46.01322604	      0.00000000	      0.00000000
      0.72000000	      0.32567361	      9.40423634	    -83.23073492	      0.59197093	      0.98239644	     -0.16484125	      9.90864550	     -6.21901374	    -12.02618571	      9.80642974	      0.17115449	      5.16331483	      0.00000000	      0.00000000	     13.33134156	     -3.98216153	     -3.24427692	     11.26169215	      0.19655361	      4.19667355	      0.00000000	      0.00000000	      6.55381346	     -4.71281593	     -5.01739406	    -56.66809623	    -66.34514513	    -23.07751210	    107.27088813	     46.50380379	      0.00000000	      0.00000000	    -11.48973874	    -86.26291040	     16.91078540	    107.92069459	     46.07809792	      0.00000000	      0.00000000
      0.73000000	     -0.22374596	     10.25716976	    -81.73311842	      0.59430823	      0.98134419	     -0.17264658	     12.19162244	     -6.44453028	    -13.39433913	     11.95044197	      0.20857456	      4.29659876	      0.00000000	      0.00000000	     16.81907912	     -4.10862075	     -1.18292501	     14.70515771	      0.25665342	      2.63244328	      0.00000000	      0.00000000	      6.52090607	     -4.31104232	     -6.57002635	    -52.85894794	    -65.18984761	    -22.58165732	    105.57090748	     46.31826276	      0.00000000	      0.00000000	    -10.05771293	    -84.46604214	     15.14940009	    105.92309657	     45.95272721	      0.00000000	      0.00000000
      0.74000000	     -0.17698453	     10.54033196	    -82.48664432	      0.59266203	      0.98047423	     -0.16745845	     11.67941928	     -6.11814786	    -14.11519853	     10.50458597	      0.18333961	      5.23403848	      0.00000000	      0.00000000	     15.64037631	     -4.24561260	     -2.26263609	     12.83072651	      0.22393842	      4.00636458	      0.00000000	      0.00000000	      7.74218951	     -4.48012063	     -5.84431685	    -54.10135062	    -65.84159048	    -22.37825000	    106.54123167	     46.35979547	      0.00000000	      0.00000000	    -10.91138222	    -85.34036958	     15.78285305	    107.08563221	     45.98591482	      0.00000000	      0.00000000
      0.75000000	     -0.53357735	     10.72838817	    -81.22767811	      0.59482142	      0.98039855	     -0.17079287	     12.32273454	     -6.19709406	    -14.11505042	     11.65190720	      0.20336414	      4.71735340	      0.00000000	      0.00000000	     17.12322224	     -4.26871896	     -1.62020949	     14.25324066	      0.24876598	      3.36375206	      0.00000000	      0.00000000	      7.43712627	     -4.24832495	     -7.07549498	    -52.90046738	    -65.11920242	    -22.04885260	    105.78732258	     46.28713094	      0.00000000	      0.00000000	    -10.45166472	    -84.41091704	     15.27933516	    106.31641052	     45.93836829	      0.00000000	      0.00000000
      0.76000000	     -0.62891130	     10.83067168	    -81.19080645	      0.59468122	      0.98008381	     -0.17115009	     12.53125186	     -6.15640964	    -14.46202122	     11.82028708	      0.20630293	      4.73879746	      0.00000000	      0.00000000	     17.46580108	     -4.36203108	     -1.19651071	     14.67615947	      0.25614730	      3.33190148	      0.00000000	      0.00000000	      7.61005362	     -4.17440878	     -7.10194626	    -52.58420564	    -65.18489278	    -21.91672877	    105.64901322	     46.26056156	      0.00000000	      0.00000000	    -10.45054920	    -84.36018763	     15.15794318	    106.21059930	     45.92040193	      0.00000000	      0.00000000
      0.77000000	      0.72690294	      8.02341445	    -83.75765378	      0.59141687	      0.98476953	     -0.16620388	      8.41014020	     -6.34433964	    -11.13402674	      9.39511900	      0.16397576	      4.82477669	      0.00000000	      0.00000000	     11.64469385	     -3.80201733	     -3.95401510	     10.92269001	      0.19063690	      3.33908480	      0.00000000	      0.00000000	      4.64047151	     -4.83564845	     -4.52382400	    -56.87496221	    -66.36763641	    -23.46583297	    107.24585867	     46.55381241	      0.00000000	      0.00000000	    -12.19000055	    -85.86804336	     15.41634904	    107.77202134	     46.09646114	      0.00000000	      0.00000000
      0.78000000	      0.51484951	      8.18098387	    -83.47781416	      0.59143313	      0.98443983	     -0.16637221	      8.64585840	     -6.16571147	    -11.80928170	      9.57420370	      0.16710138	      4.92767282	      0.00000000	      0.00000000	     11.95105542	     -4.00743290	     -3.67366782	     11.04756099	      0.19281631	      3.67876835	      0.00000000	      0.00000000	      4.82502476	     -4.70900996	     -4.78313258	    -56.30337317	    -66.00721737	    -23.37638107	    107.18952481	     46.55914835	      0.00000000	      0.00000000	    -12.14315689	    -85.75005592	     15.17694797	    107.64872907	     46.09493616	      0.00000000	      0.00000000
      0.79000000	     -0.02437041	      9.27469737	    -82.67378049	      0.59249541	      0.98253934	     -0.16684572	      9.88897243	     -5.94765277	    -13.35163978	      9.80148055	      0.17106811	      5.18797967	      0.00000000	      0.00000000	     13.66356668	     -4.27261182	     -2.90027623	     11.64043940	      0.20316399	      4.17488838	      0.00000000	      0.00000000	      6.16407288	     -4.38647310	     -5.63129029	    -55.08989585	    -65.85462786	    -22.45578877	    106.88258623	     46.44864782	      0.00000000	      0.00000000	    -12.39951877	    -85.36602311	     14.95594299	    107.53576757	     46.03096306	      0.00000000	      0.00000000
      0.80000000	     -0.09988209	      9.41416117	    -82.61562426	      0.59240852	      0.98238266	     -0.16903486	     10.43955848	     -5.98960503	    -13.47524787	     10.27445866	      0.17932313	      4.96008686	      0.00000000	      0.00000000	     14.36076163	     -4.35381570	     -2.35090619	     12.48716301	      0.21794211	      3.84906566	      0.00000000	      0.00000000	      6.06074140	     -4.31550676	     -5.75423051	    -54.09787835	    -65.82840268	    -22.22921919	    106.43000727	     46.39329743	      0.00000000	      0.00000000	    -12.06813697	    -85.17362320	     14.43757754	    107.03064244	     45.99473264	      0.00000000	      0.00000000
      0.81000000	     -0.09572832	      9.49359418	    -82.68164280	      0.59241869	      0.98218706	     -0.16911367	     10.50943783	     -6.00137971	    -13.30943393	     10.23467325	      0.17862875	      4.98096789	      0.00000000	      0.00000000	     14.41046957	     -4.32722941	     -2.45830436	     12.40967954	      0.21658977	      3.99693869	      0.00000000	      0.00000000	      6.19635113	     -4.31079957	     -5.66732994	    -54.18894064	    -65.97674681	    -21.97990998	    106.47771984	     46.38240233	      0.00000000	      0.00000000	    -12.26162024	    -85.26157768	     14.48632310	    107.13726119	     45.98899533	      0.00000000	      0.00000000
